<?xml version="1.0" encoding="UTF-8"?>
<mxfile host="app.diagrams.net" modified="2024-04-24T19:21:38.723Z" agent="Mozilla/5.0 (X11; Ubuntu; Linux x86_64; rv:123.0) Gecko/20100101 Firefox/123.0" etag="TJg2N2UuQJbcOxNlvlwJ" version="24.3.0" type="google">
  <diagram name="Página-1" id="2jphilSjgBzsml_n2fzB">
    <mxGraphModel dx="1434" dy="708" grid="1" gridSize="10" guides="1" tooltips="1" connect="1" arrows="1" fold="1" page="1" pageScale="1" pageWidth="827" pageHeight="1169" math="0" shadow="0">
      <root>
        <mxCell id="0" />
        <mxCell id="1" parent="0" />
        <mxCell id="VgVW2ox4PpsKhokzol7R-1" value="Administrador" style="shape=umlActor;verticalLabelPosition=bottom;verticalAlign=top;html=1;" parent="1" vertex="1">
          <mxGeometry x="69" y="465" width="30" height="60" as="geometry" />
        </mxCell>
        <mxCell id="15" value="Autenticar usuário" style="ellipse;whiteSpace=wrap;html=1;" parent="1" vertex="1">
          <mxGeometry x="445" y="195" width="140" height="70" as="geometry" />
        </mxCell>
        <mxCell id="19" value="Registrar acesso" style="ellipse;whiteSpace=wrap;html=1;" parent="1" vertex="1">
          <mxGeometry x="209" y="195" width="140" height="70" as="geometry" />
        </mxCell>
        <mxCell id="25" value="" style="endArrow=classic;dashed=1;endFill=1;endSize=12;html=1;exitX=0;exitY=0.5;exitDx=0;exitDy=0;entryX=0;entryY=0.5;entryDx=0;entryDy=0;" parent="1" source="15" target="27" edge="1">
          <mxGeometry width="160" relative="1" as="geometry">
            <mxPoint x="329" y="275" as="sourcePoint" />
            <mxPoint x="449" y="245" as="targetPoint" />
          </mxGeometry>
        </mxCell>
        <mxCell id="26" value="&amp;lt;&amp;lt;extends&amp;gt;&amp;gt;" style="endArrow=classic;endSize=16;endFill=1;html=1;exitX=0.5;exitY=1;exitDx=0;exitDy=0;dashed=1;entryX=1;entryY=0.5;entryDx=0;entryDy=0;" parent="1" source="15" target="12" edge="1">
          <mxGeometry width="160" relative="1" as="geometry">
            <mxPoint x="259" y="325" as="sourcePoint" />
            <mxPoint x="389" y="400" as="targetPoint" />
          </mxGeometry>
        </mxCell>
        <mxCell id="27" value="include" style="text;html=1;strokeColor=none;fillColor=none;align=center;verticalAlign=middle;whiteSpace=wrap;rounded=0;labelBackgroundColor=default;" parent="1" vertex="1">
          <mxGeometry x="349" y="215" width="101" height="30" as="geometry" />
        </mxCell>
        <mxCell id="34" value="Tranca" style="shape=umlActor;verticalLabelPosition=bottom;verticalAlign=top;html=1;" parent="1" vertex="1">
          <mxGeometry x="729" y="305" width="30" height="60" as="geometry" />
        </mxCell>
        <mxCell id="35" value="" style="endArrow=none;html=1;exitX=1;exitY=0.5;exitDx=0;exitDy=0;" parent="1" source="15" target="34" edge="1">
          <mxGeometry width="50" height="50" relative="1" as="geometry">
            <mxPoint x="629" y="385" as="sourcePoint" />
            <mxPoint x="679" y="335" as="targetPoint" />
          </mxGeometry>
        </mxCell>
        <mxCell id="36" value="" style="endArrow=none;html=1;entryX=0;entryY=0.5;entryDx=0;entryDy=0;endFill=0;" parent="1" source="VgVW2ox4PpsKhokzol7R-1" target="2" edge="1">
          <mxGeometry width="50" height="50" relative="1" as="geometry">
            <mxPoint x="119" y="505" as="sourcePoint" />
            <mxPoint x="229" y="515" as="targetPoint" />
          </mxGeometry>
        </mxCell>
        <mxCell id="37" value="" style="endArrow=none;html=1;entryX=0;entryY=0.5;entryDx=0;entryDy=0;" parent="1" source="VgVW2ox4PpsKhokzol7R-1" target="VgVW2ox4PpsKhokzol7R-7" edge="1">
          <mxGeometry width="50" height="50" relative="1" as="geometry">
            <mxPoint x="69" y="624.9973170731707" as="sourcePoint" />
            <mxPoint x="218.0000000000016" y="629.54" as="targetPoint" />
          </mxGeometry>
        </mxCell>
        <mxCell id="38" value="" style="endArrow=none;html=1;entryX=0;entryY=0.5;entryDx=0;entryDy=0;" parent="1" source="VgVW2ox4PpsKhokzol7R-1" target="16" edge="1">
          <mxGeometry width="50" height="50" relative="1" as="geometry">
            <mxPoint x="69" y="619.6036585365853" as="sourcePoint" />
            <mxPoint x="218.0000000000016" y="715" as="targetPoint" />
          </mxGeometry>
        </mxCell>
        <mxCell id="39" value="" style="endArrow=none;html=1;entryX=0;entryY=0.5;entryDx=0;entryDy=0;" parent="1" source="VgVW2ox4PpsKhokzol7R-1" target="12" edge="1">
          <mxGeometry width="50" height="50" relative="1" as="geometry">
            <mxPoint x="99" y="444.99731707317073" as="sourcePoint" />
            <mxPoint x="248.0000000000016" y="449.53999999999996" as="targetPoint" />
          </mxGeometry>
        </mxCell>
        <mxCell id="41" value="" style="swimlane;startSize=0;labelBackgroundColor=default;" parent="1" vertex="1">
          <mxGeometry x="179" y="185" width="530" height="800" as="geometry" />
        </mxCell>
        <mxCell id="16" value="Cadastrar Usuario" style="ellipse;whiteSpace=wrap;html=1;" parent="41" vertex="1">
          <mxGeometry x="79" y="380" width="140" height="70" as="geometry" />
        </mxCell>
        <mxCell id="22" value="Cadastrar Tranca" style="ellipse;whiteSpace=wrap;html=1;" parent="41" vertex="1">
          <mxGeometry x="79" y="460" width="140" height="70" as="geometry" />
        </mxCell>
        <mxCell id="23" value="Cadastro de acesso temporário" style="ellipse;whiteSpace=wrap;html=1;" parent="41" vertex="1">
          <mxGeometry x="79" y="620" width="140" height="70" as="geometry" />
        </mxCell>
        <mxCell id="24" value="Cadastro de tipos de usuário" style="ellipse;whiteSpace=wrap;html=1;" parent="41" vertex="1">
          <mxGeometry x="79" y="710" width="140" height="70" as="geometry" />
        </mxCell>
        <mxCell id="21" value="Cadastrar Ambiente" style="ellipse;whiteSpace=wrap;html=1;" parent="41" vertex="1">
          <mxGeometry x="79" y="540" width="140" height="70" as="geometry" />
        </mxCell>
        <mxCell id="12" value="ALERTA: acesso não autorizado" style="ellipse;whiteSpace=wrap;html=1;" parent="41" vertex="1">
          <mxGeometry x="79" y="140" width="140" height="70" as="geometry" />
        </mxCell>
        <mxCell id="2" value="Acessar remotamente" style="ellipse;whiteSpace=wrap;html=1;" parent="41" vertex="1">
          <mxGeometry x="79" y="220" width="140" height="70" as="geometry" />
        </mxCell>
        <mxCell id="VgVW2ox4PpsKhokzol7R-7" value="Acessar relatório de acesso" style="ellipse;whiteSpace=wrap;html=1;" parent="41" vertex="1">
          <mxGeometry x="79" y="300" width="140" height="70" as="geometry" />
        </mxCell>
        <mxCell id="42" value="" style="endArrow=classic;html=1;exitX=1;exitY=0.5;exitDx=0;exitDy=0;startArrow=none;startFill=0;endFill=1;" parent="1" source="2" target="34" edge="1">
          <mxGeometry width="50" height="50" relative="1" as="geometry">
            <mxPoint x="498.9999999999991" y="339.90999999999997" as="sourcePoint" />
            <mxPoint x="643" y="435.0043396226416" as="targetPoint" />
          </mxGeometry>
        </mxCell>
        <mxCell id="xqi4dt3DCGadjeVhO0Qc-42" value="" style="endArrow=none;html=1;entryX=-0.014;entryY=0.414;entryDx=0;entryDy=0;entryPerimeter=0;" parent="1" source="VgVW2ox4PpsKhokzol7R-1" target="22" edge="1">
          <mxGeometry width="50" height="50" relative="1" as="geometry">
            <mxPoint x="60" y="625" as="sourcePoint" />
            <mxPoint x="209" y="720" as="targetPoint" />
          </mxGeometry>
        </mxCell>
        <mxCell id="xqi4dt3DCGadjeVhO0Qc-43" value="" style="endArrow=none;html=1;entryX=0;entryY=0.5;entryDx=0;entryDy=0;" parent="1" source="VgVW2ox4PpsKhokzol7R-1" target="21" edge="1">
          <mxGeometry width="50" height="50" relative="1" as="geometry">
            <mxPoint x="79" y="575" as="sourcePoint" />
            <mxPoint x="207" y="825" as="targetPoint" />
          </mxGeometry>
        </mxCell>
        <mxCell id="xqi4dt3DCGadjeVhO0Qc-44" value="" style="endArrow=none;html=1;entryX=0;entryY=0.5;entryDx=0;entryDy=0;" parent="1" source="VgVW2ox4PpsKhokzol7R-1" target="23" edge="1">
          <mxGeometry width="50" height="50" relative="1" as="geometry">
            <mxPoint x="69" y="615" as="sourcePoint" />
            <mxPoint x="228" y="875" as="targetPoint" />
          </mxGeometry>
        </mxCell>
        <mxCell id="xqi4dt3DCGadjeVhO0Qc-46" value="" style="endArrow=none;html=1;entryX=0;entryY=0.5;entryDx=0;entryDy=0;" parent="1" source="VgVW2ox4PpsKhokzol7R-1" target="24" edge="1">
          <mxGeometry width="50" height="50" relative="1" as="geometry">
            <mxPoint x="29" y="545" as="sourcePoint" />
            <mxPoint x="189" y="880" as="targetPoint" />
            <Array as="points" />
          </mxGeometry>
        </mxCell>
      </root>
    </mxGraphModel>
  </diagram>
</mxfile>
